<?xml version="1.0" encoding="UTF-8"?><svg xmlns="http://www.w3.org/2000/svg" viewBox="0 0 1080 1080"><defs><style>.cls-1{fill:#fff;}</style></defs><g id="backgrounds"><rect class="cls-1" width="1080" height="1080"/></g><g id="logos"><g><polygon points="630.36 512.06 630.36 497.29 559.85 497.29 540.7 512.06 540.7 532.35 559.85 547.12 621.31 547.12 621.31 567.94 544.51 567.94 544.51 582.71 616.93 582.71 636.08 567.94 636.08 547.12 616.93 532.35 555.47 532.35 555.47 512.06 630.36 512.06"/><polygon points="261.25 497.29 247.8 497.29 198.46 582.71 215.52 582.71 254.56 515.15 293.54 582.71 310.6 582.71 261.25 497.29"/><polygon points="407.92 497.29 312.54 497.29 312.54 512.06 352.85 512.06 352.85 582.71 367.62 582.71 367.62 512.06 407.92 512.06 407.92 497.29"/><polygon points="755.16 497.29 659.79 497.29 659.79 512.06 700.09 512.06 700.09 582.71 714.86 582.71 714.86 512.06 755.16 512.06 755.16 497.29"/><path d="m160.61,497.29h-76.23v85.42h76.23l19.15-14.77v-55.88l-19.15-14.77Zm-61.46,70.65v-55.88h65.84v55.88h-65.84Z"/><polygon points="929.61 540 921.07 525.23 921.07 525.23 904.92 497.29 887.87 497.29 912.54 540 887.87 582.71 904.92 582.71 921.07 554.77 921.07 554.77 929.61 540"/><polygon points="953.88 540 962.41 525.23 962.41 525.23 978.56 497.29 995.61 497.29 970.94 540 995.61 582.71 978.56 582.71 962.41 554.77 962.41 554.77 953.88 540"/><polygon points="459.21 497.29 472.66 497.29 522 582.71 504.95 582.71 465.91 515.15 426.92 582.71 409.87 582.71 459.21 497.29"/><polygon points="806.45 497.29 819.9 497.29 869.24 582.71 852.19 582.71 813.15 515.15 774.16 582.71 757.11 582.71 806.45 497.29"/></g></g></svg>